<svg aria-hidden="true" style="position: absolute; width: 0; height: 0; overflow: hidden;" version="1.1" xmlns="http://www.w3.org/2000/svg" xmlns:xlink="http://www.w3.org/1999/xlink">
<defs>
<symbol id="icon-arrow-up" viewBox="0 0 24 24">
<path d="M5.707 12.707l5.293-5.293v11.586c0 0.552 0.448 1 1 1s1-0.448 1-1v-11.586l5.293 5.293c0.391 0.391 1.024 0.391 1.414 0s0.391-1.024 0-1.414l-7-7c-0.092-0.092-0.202-0.166-0.324-0.217s-0.253-0.076-0.383-0.076c-0.256 0-0.512 0.098-0.707 0.293l-7 7c-0.391 0.391-0.391 1.024 0 1.414s1.024 0.391 1.414 0z"></path>
</symbol>
<symbol id="icon-arrow-up-circle" viewBox="0 0 24 24">
<path d="M23 12c0-3.037-1.232-5.789-3.222-7.778s-4.741-3.222-7.778-3.222-5.789 1.232-7.778 3.222-3.222 4.741-3.222 7.778 1.232 5.789 3.222 7.778 4.741 3.222 7.778 3.222 5.789-1.232 7.778-3.222 3.222-4.741 3.222-7.778zM21 12c0 2.486-1.006 4.734-2.636 6.364s-3.878 2.636-6.364 2.636-4.734-1.006-6.364-2.636-2.636-3.878-2.636-6.364 1.006-4.734 2.636-6.364 3.878-2.636 6.364-2.636 4.734 1.006 6.364 2.636 2.636 3.878 2.636 6.364zM13 16v-5.586l2.293 2.293c0.391 0.391 1.024 0.391 1.414 0s0.391-1.024 0-1.414l-4-4c-0.096-0.096-0.206-0.168-0.324-0.217-0.122-0.051-0.253-0.076-0.383-0.076-0.256 0-0.512 0.098-0.707 0.293l-4 4c-0.391 0.391-0.391 1.024 0 1.414s1.024 0.391 1.414 0l2.293-2.293v5.586c0 0.552 0.448 1 1 1s1-0.448 1-1z"></path>
</symbol>
<symbol id="icon-at-sign" viewBox="0 0 24 24">
<path d="M15 12c0 0.829-0.335 1.577-0.879 2.121s-1.292 0.879-2.121 0.879-1.577-0.335-2.121-0.879-0.879-1.292-0.879-2.121 0.335-1.577 0.879-2.121 1.292-0.879 2.121-0.879 1.577 0.335 2.121 0.879 0.879 1.292 0.879 2.121zM15.74 15.318c0.13 0.182 0.274 0.353 0.431 0.51 0.723 0.723 1.725 1.172 2.829 1.172s2.106-0.449 2.828-1.172 1.172-1.724 1.172-2.828v-1c0-3.037-1.233-5.789-3.222-7.778s-4.741-3.222-7.779-3.221-5.788 1.232-7.778 3.222-3.221 4.741-3.221 7.778 1.233 5.789 3.222 7.778 4.741 3.222 7.778 3.221c2.525 0 4.855-0.852 6.69-2.269 0.437-0.337 0.518-0.965 0.18-1.403s-0.965-0.518-1.403-0.18c-1.487 1.148-3.377 1.844-5.435 1.852-2.54-0.009-4.776-1.014-6.398-2.636-1.627-1.629-2.634-3.877-2.634-6.363s1.006-4.734 2.636-6.364 3.878-2.636 6.364-2.636 4.734 1.006 6.364 2.636 2.636 3.878 2.636 6.363v1c0 0.553-0.223 1.051-0.586 1.414s-0.861 0.586-1.414 0.586-1.051-0.223-1.414-0.586-0.586-0.861-0.586-1.414v-5c0-0.552-0.448-1-1-1s-1 0.448-1 1c-0.835-0.627-1.875-1-3-1-1.38 0-2.632 0.561-3.536 1.464s-1.464 2.156-1.464 3.536 0.561 2.632 1.464 3.536 2.156 1.464 3.536 1.464 2.632-0.561 3.536-1.464c0.070-0.070 0.139-0.143 0.205-0.217z"></path>
</symbol>
<symbol id="icon-calendar" viewBox="0 0 24 24">
<path d="M7 2v1h-2c-0.828 0-1.58 0.337-2.121 0.879s-0.879 1.293-0.879 2.121v14c0 0.828 0.337 1.58 0.879 2.121s1.293 0.879 2.121 0.879h14c0.828 0 1.58-0.337 2.121-0.879s0.879-1.293 0.879-2.121v-14c0-0.828-0.337-1.58-0.879-2.121s-1.293-0.879-2.121-0.879h-2v-1c0-0.552-0.448-1-1-1s-1 0.448-1 1v1h-6v-1c0-0.552-0.448-1-1-1s-1 0.448-1 1zM20 9h-16v-3c0-0.276 0.111-0.525 0.293-0.707s0.431-0.293 0.707-0.293h2v1c0 0.552 0.448 1 1 1s1-0.448 1-1v-1h6v1c0 0.552 0.448 1 1 1s1-0.448 1-1v-1h2c0.276 0 0.525 0.111 0.707 0.293s0.293 0.431 0.293 0.707zM4 11h16v9c0 0.276-0.111 0.525-0.293 0.707s-0.431 0.293-0.707 0.293h-14c-0.276 0-0.525-0.111-0.707-0.293s-0.293-0.431-0.293-0.707z"></path>
</symbol>
<symbol id="icon-chevron-up" viewBox="0 0 24 24">
<path d="M18.707 14.293l-6-6c-0.391-0.391-1.024-0.391-1.414 0l-6 6c-0.391 0.391-0.391 1.024 0 1.414s1.024 0.391 1.414 0l5.293-5.293 5.293 5.293c0.391 0.391 1.024 0.391 1.414 0s0.391-1.024 0-1.414z"></path>
</symbol>
<symbol id="icon-chrome" viewBox="0 0 24 24">
<path d="M7.402 10.033l-2.244-3.881c0.152-0.178 0.312-0.35 0.478-0.516 1.63-1.63 3.878-2.636 6.364-2.636s4.734 1.006 6.364 2.636c0.416 0.416 0.792 0.873 1.121 1.364h-7.485c-1.38 0-2.632 0.561-3.536 1.464-0.447 0.447-0.81 0.978-1.063 1.569zM10.7 22.924c0.046 0.008 0.092 0.014 0.139 0.015 0.381 0.040 0.769 0.061 1.161 0.061 3.037 0 5.789-1.232 7.778-3.222s3.222-4.741 3.222-7.778c0-1.539-0.317-3.005-0.888-4.336-0.016-0.044-0.034-0.086-0.055-0.126-0.553-1.244-1.33-2.367-2.279-3.316-1.989-1.99-4.741-3.222-7.778-3.222s-5.789 1.232-7.778 3.222c-0.366 0.365-0.706 0.757-1.017 1.171-0.042 0.047-0.079 0.097-0.111 0.149-1.317 1.813-2.094 4.046-2.094 6.458 0 3.037 1.232 5.789 3.222 7.778 1.701 1.701 3.96 2.849 6.478 3.146zM12.595 16.965l-2.241 3.885c-1.825-0.337-3.457-1.225-4.718-2.486-1.63-1.63-2.636-3.878-2.636-6.364 0-1.43 0.333-2.782 0.927-3.982l3.643 6.302c0.236 0.45 0.539 0.859 0.894 1.215 0.904 0.904 2.156 1.465 3.536 1.465 0.201 0 0.4-0.012 0.595-0.035zM14.638 13.431c-0.015 0.022-0.030 0.046-0.044 0.069l-0.076 0.132c-0.115 0.176-0.248 0.34-0.396 0.489-0.545 0.544-1.293 0.879-2.122 0.879s-1.577-0.335-2.121-0.879c-0.166-0.166-0.312-0.351-0.436-0.551-0.011-0.024-0.024-0.047-0.037-0.070l-0.082-0.141c-0.207-0.408-0.324-0.87-0.324-1.359 0-0.829 0.335-1.577 0.879-2.121s1.292-0.879 2.121-0.879 1.577 0.335 2.121 0.879 0.879 1.292 0.879 2.121c0 0.518-0.131 1.006-0.362 1.431zM12.588 20.981l3.64-6.311c0.489-0.772 0.772-1.688 0.772-2.67 0-1.125-0.373-2.165-1-3h4.488c0.332 0.938 0.512 1.948 0.512 3 0 2.486-1.006 4.734-2.636 6.364-1.5 1.5-3.525 2.472-5.776 2.617z"></path>
</symbol>
<symbol id="icon-coffee" viewBox="0 0 24 24">
<path d="M19 15v-6c0.829 0 1.577 0.335 2.121 0.879s0.879 1.292 0.879 2.121-0.335 1.577-0.879 2.121-1.292 0.879-2.121 0.879zM2 7c-0.552 0-1 0.448-1 1v9c0 1.38 0.561 2.632 1.464 3.536s2.156 1.464 3.536 1.464h8c1.38 0 2.632-0.561 3.536-1.464s1.464-2.156 1.464-3.536c1.38 0 2.632-0.561 3.536-1.464s1.464-2.156 1.464-3.536-0.561-2.632-1.464-3.536-2.156-1.464-3.536-1.464h-1zM3 9h14v8c0 0.829-0.335 1.577-0.879 2.121s-1.292 0.879-2.121 0.879h-8c-0.829 0-1.577-0.335-2.121-0.879s-0.879-1.292-0.879-2.121zM5 1v3c0 0.552 0.448 1 1 1s1-0.448 1-1v-3c0-0.552-0.448-1-1-1s-1 0.448-1 1zM9 1v3c0 0.552 0.448 1 1 1s1-0.448 1-1v-3c0-0.552-0.448-1-1-1s-1 0.448-1 1zM13 1v3c0 0.552 0.448 1 1 1s1-0.448 1-1v-3c0-0.552-0.448-1-1-1s-1 0.448-1 1z"></path>
</symbol>
<symbol id="icon-download" viewBox="0 0 24 24">
<path d="M20 15v4c0 0.276-0.111 0.525-0.293 0.707s-0.431 0.293-0.707 0.293h-14c-0.276 0-0.525-0.111-0.707-0.293s-0.293-0.431-0.293-0.707v-4c0-0.552-0.448-1-1-1s-1 0.448-1 1v4c0 0.828 0.337 1.58 0.879 2.121s1.293 0.879 2.121 0.879h14c0.828 0 1.58-0.337 2.121-0.879s0.879-1.293 0.879-2.121v-4c0-0.552-0.448-1-1-1s-1 0.448-1 1zM13 12.586v-9.586c0-0.552-0.448-1-1-1s-1 0.448-1 1v9.586l-3.293-3.293c-0.391-0.391-1.024-0.391-1.414 0s-0.391 1.024 0 1.414l5 5c0.092 0.092 0.202 0.166 0.324 0.217s0.253 0.076 0.383 0.076c0.256 0 0.512-0.098 0.707-0.293l5-5c0.391-0.391 0.391-1.024 0-1.414s-1.024-0.391-1.414 0z"></path>
</symbol>
<symbol id="icon-download-cloud" viewBox="0 0 24 24">
<path d="M11 12v6.586l-2.293-2.293c-0.391-0.391-1.024-0.391-1.414 0s-0.391 1.024 0 1.414l4 4c0.092 0.092 0.202 0.166 0.324 0.217 0.245 0.101 0.521 0.101 0.766 0 0.118-0.049 0.228-0.121 0.324-0.217l4-4c0.391-0.391 0.391-1.024 0-1.414s-1.024-0.391-1.414 0l-2.293 2.293v-6.586c0-0.552-0.448-1-1-1s-1 0.448-1 1zM21.455 18.908c1.355-0.953 2.196-2.367 2.46-3.878s-0.050-3.126-1.003-4.481c-0.825-1.174-1.998-1.963-3.287-2.324-0.526-0.147-1.072-0.223-1.621-0.225h-0.523c-0.722-2.058-2.137-3.71-3.907-4.758-1.981-1.172-4.412-1.589-6.819-0.972s-4.338 2.155-5.51 4.136-1.589 4.412-0.972 6.819c0.371 1.446 1.075 2.725 1.983 3.734 0.37 0.41 1.002 0.444 1.412 0.074s0.444-1.002 0.074-1.412c-0.692-0.769-1.242-1.76-1.533-2.893-0.481-1.873-0.157-3.761 0.756-5.304s2.412-2.736 4.285-3.216 3.761-0.157 5.304 0.756 2.736 2.412 3.216 4.285c0.116 0.435 0.506 0.751 0.97 0.751h1.256c0.37 0.001 0.737 0.052 1.090 0.151 0.861 0.241 1.639 0.765 2.19 1.548 0.636 0.904 0.845 1.978 0.669 2.988s-0.736 1.95-1.64 2.585c-0.452 0.318-0.56 0.941-0.243 1.393s0.941 0.56 1.393 0.243z"></path>
</symbol>
<symbol id="icon-external-link" viewBox="0 0 24 24">
<path d="M17 13v6c0 0.276-0.111 0.525-0.293 0.707s-0.431 0.293-0.707 0.293h-11c-0.276 0-0.525-0.111-0.707-0.293s-0.293-0.431-0.293-0.707v-11c0-0.276 0.111-0.525 0.293-0.707s0.431-0.293 0.707-0.293h6c0.552 0 1-0.448 1-1s-0.448-1-1-1h-6c-0.828 0-1.58 0.337-2.121 0.879s-0.879 1.293-0.879 2.121v11c0 0.828 0.337 1.58 0.879 2.121s1.293 0.879 2.121 0.879h11c0.828 0 1.58-0.337 2.121-0.879s0.879-1.293 0.879-2.121v-6c0-0.552-0.448-1-1-1s-1 0.448-1 1zM10.707 14.707l9.293-9.293v3.586c0 0.552 0.448 1 1 1s1-0.448 1-1v-6c0-0.136-0.027-0.265-0.076-0.383s-0.121-0.228-0.216-0.323c-0.001-0.001-0.001-0.001-0.002-0.002-0.092-0.092-0.202-0.166-0.323-0.216-0.118-0.049-0.247-0.076-0.383-0.076h-6c-0.552 0-1 0.448-1 1s0.448 1 1 1h3.586l-9.293 9.293c-0.391 0.391-0.391 1.024 0 1.414s1.024 0.391 1.414 0z"></path>
</symbol>
<symbol id="icon-eye" viewBox="0 0 24 24">
<path d="M0.106 11.553c-0.136 0.274-0.146 0.603 0 0.894 0 0 0.396 0.789 1.12 1.843 0.451 0.656 1.038 1.432 1.757 2.218 0.894 0.979 2.004 1.987 3.319 2.8 1.595 0.986 3.506 1.692 5.698 1.692s4.103-0.706 5.698-1.692c1.315-0.813 2.425-1.821 3.319-2.8 0.718-0.786 1.306-1.562 1.757-2.218 0.724-1.054 1.12-1.843 1.12-1.843 0.136-0.274 0.146-0.603 0-0.894 0 0-0.396-0.789-1.12-1.843-0.451-0.656-1.038-1.432-1.757-2.218-0.894-0.979-2.004-1.987-3.319-2.8-1.595-0.986-3.506-1.692-5.698-1.692s-4.103 0.706-5.698 1.692c-1.315 0.813-2.425 1.821-3.319 2.8-0.719 0.786-1.306 1.561-1.757 2.218-0.724 1.054-1.12 1.843-1.12 1.843zM2.14 12c0.163-0.281 0.407-0.681 0.734-1.158 0.41-0.596 0.94-1.296 1.585-2.001 0.805-0.881 1.775-1.756 2.894-2.448 1.35-0.834 2.901-1.393 4.647-1.393s3.297 0.559 4.646 1.393c1.119 0.692 2.089 1.567 2.894 2.448 0.644 0.705 1.175 1.405 1.585 2.001 0.328 0.477 0.572 0.876 0.734 1.158-0.163 0.281-0.407 0.681-0.734 1.158-0.41 0.596-0.94 1.296-1.585 2.001-0.805 0.881-1.775 1.756-2.894 2.448-1.349 0.834-2.9 1.393-4.646 1.393s-3.297-0.559-4.646-1.393c-1.119-0.692-2.089-1.567-2.894-2.448-0.644-0.705-1.175-1.405-1.585-2.001-0.328-0.477-0.572-0.877-0.735-1.158zM16 12c0-1.104-0.449-2.106-1.172-2.828s-1.724-1.172-2.828-1.172-2.106 0.449-2.828 1.172-1.172 1.724-1.172 2.828 0.449 2.106 1.172 2.828 1.724 1.172 2.828 1.172 2.106-0.449 2.828-1.172 1.172-1.724 1.172-2.828zM14 12c0 0.553-0.223 1.051-0.586 1.414s-0.861 0.586-1.414 0.586-1.051-0.223-1.414-0.586-0.586-0.861-0.586-1.414 0.223-1.051 0.586-1.414 0.861-0.586 1.414-0.586 1.051 0.223 1.414 0.586 0.586 0.861 0.586 1.414z"></path>
</symbol>
<symbol id="icon-facebook" viewBox="0 0 24 24">
<path d="M17 3v2h-2c-0.552 0-1.053 0.225-1.414 0.586s-0.586 0.862-0.586 1.414v3c0 0.552 0.448 1 1 1h2.719l-0.5 2h-2.219c-0.552 0-1 0.448-1 1v7h-2v-7c0-0.552-0.448-1-1-1h-2v-2h2c0.552 0 1-0.448 1-1v-3c0-1.105 0.447-2.103 1.172-2.828s1.723-1.172 2.828-1.172zM18 1h-3c-1.657 0-3.158 0.673-4.243 1.757s-1.757 2.586-1.757 4.243v2h-2c-0.552 0-1 0.448-1 1v4c0 0.552 0.448 1 1 1h2v7c0 0.552 0.448 1 1 1h4c0.552 0 1-0.448 1-1v-7h2c0.466 0 0.858-0.319 0.97-0.757l1-4c0.134-0.536-0.192-1.079-0.728-1.213-0.083-0.021-0.167-0.031-0.242-0.030h-3v-2h3c0.552 0 1-0.448 1-1v-4c0-0.552-0.448-1-1-1z"></path>
</symbol>
<symbol id="icon-figma" viewBox="0 0 24 24">
<path d="M13 12.5c0-0.691 0.279-1.314 0.732-1.768s1.077-0.732 1.768-0.732 1.314 0.279 1.768 0.732 0.732 1.077 0.732 1.768-0.279 1.314-0.732 1.768-1.077 0.732-1.768 0.732-1.314-0.279-1.768-0.732-0.732-1.077-0.732-1.768zM8.5 8c-0.691 0-1.314-0.279-1.768-0.732s-0.732-1.077-0.732-1.768 0.279-1.314 0.732-1.768 1.077-0.732 1.768-0.732h2.5v5zM13 8v-5h2.5c0.691 0 1.314 0.279 1.768 0.732s0.732 1.077 0.732 1.768-0.279 1.314-0.732 1.768-1.077 0.732-1.768 0.732zM11 17v2.5c0 0.691-0.279 1.314-0.732 1.768s-1.077 0.732-1.768 0.732-1.314-0.279-1.768-0.732-0.732-1.077-0.732-1.768 0.279-1.314 0.732-1.768 1.077-0.732 1.768-0.732zM4 12.5c0 1.242 0.505 2.369 1.318 3.182 0.112 0.112 0.23 0.218 0.353 0.318-0.123 0.1-0.241 0.206-0.353 0.318-0.813 0.813-1.318 1.94-1.318 3.182s0.505 2.369 1.318 3.182 1.94 1.318 3.182 1.318 2.369-0.505 3.182-1.318 1.318-1.94 1.318-3.182v-3.258c0.715 0.478 1.575 0.758 2.5 0.758 1.242 0 2.369-0.505 3.182-1.318s1.318-1.94 1.318-3.182-0.505-2.369-1.318-3.182c-0.112-0.112-0.23-0.218-0.353-0.318 0.123-0.1 0.241-0.206 0.353-0.318 0.813-0.813 1.318-1.94 1.318-3.182s-0.505-2.369-1.318-3.182-1.94-1.318-3.182-1.318h-7c-1.242 0-2.369 0.505-3.182 1.318s-1.318 1.94-1.318 3.182 0.505 2.369 1.318 3.182c0.112 0.112 0.23 0.218 0.353 0.318-0.123 0.1-0.241 0.206-0.353 0.318-0.813 0.813-1.318 1.94-1.318 3.182zM6 12.5c0-0.691 0.279-1.314 0.732-1.768s1.077-0.732 1.768-0.732h2.5v5h-2.5c-0.691 0-1.314-0.279-1.768-0.732s-0.732-1.077-0.732-1.768z"></path>
</symbol>
<symbol id="icon-github" viewBox="0 0 24 24">
<path d="M8.713 18.042c-1.268 0.38-2.060 0.335-2.583 0.17-0.231-0.073-0.431-0.176-0.614-0.302-0.411-0.284-0.727-0.675-1.119-1.172-0.356-0.451-0.85-1.107-1.551-1.476-0.185-0.098-0.386-0.177-0.604-0.232-0.536-0.134-1.079 0.192-1.213 0.728s0.192 1.079 0.728 1.213c0.074 0.023 0.155 0.060 0.155 0.060 0.252 0.133 0.487 0.404 0.914 0.946 0.366 0.464 0.856 1.098 1.553 1.579 0.332 0.229 0.711 0.426 1.149 0.564 1.015 0.321 2.236 0.296 3.76-0.162 0.529-0.159 0.829-0.716 0.67-1.245s-0.716-0.829-1.245-0.67zM17 22v-3.792c0.052-0.684-0.056-1.343-0.292-1.942 0.777-0.171 1.563-0.427 2.297-0.823 2.083-1.124 3.496-3.242 3.496-6.923 0-1.503-0.516-2.887-1.379-3.981 0.355-1.345 0.226-2.726-0.293-3.933-0.122-0.283-0.359-0.482-0.634-0.564-0.357-0.106-1.732-0.309-4.373 1.362-2.273-0.541-4.557-0.509-6.646-0.002-2.639-1.669-4.013-1.466-4.37-1.36-0.296 0.088-0.521 0.3-0.635 0.565-0.554 1.292-0.624 2.672-0.292 3.932-0.93 1.178-1.387 2.601-1.379 4.017 0 3.622 1.389 5.723 3.441 6.859 0.752 0.416 1.56 0.685 2.357 0.867-0.185 0.468-0.286 0.961-0.304 1.456-0.005 0.141-0.003 0.283 0.005 0.424l0.001 3.838c0 0.552 0.448 1 1 1s1-0.448 1-1v-3.87c0-0.021-0.001-0.045-0.002-0.069-0.006-0.084-0.007-0.168-0.004-0.252 0.020-0.568 0.241-1.126 0.665-1.564 0.145-0.149 0.246-0.347 0.274-0.572 0.068-0.548-0.321-1.048-0.869-1.116-0.34-0.042-0.677-0.094-1.006-0.159-0.79-0.156-1.518-0.385-2.147-0.733-1.305-0.723-2.391-2.071-2.41-5.042 0.013-1.241 0.419-2.319 1.224-3.165 0.257-0.273 0.35-0.671 0.212-1.040-0.28-0.748-0.341-1.58-0.14-2.392 0.491 0.107 1.354 0.416 2.647 1.282 0.235 0.157 0.533 0.214 0.825 0.133 1.997-0.557 4.242-0.602 6.47 0.002 0.271 0.073 0.569 0.033 0.818-0.135 1.293-0.866 2.156-1.175 2.647-1.282 0.189 0.766 0.157 1.595-0.141 2.392-0.129 0.352-0.058 0.755 0.213 1.040 0.758 0.795 1.224 1.872 1.224 3.060 0 3.075-1.114 4.445-2.445 5.163-0.623 0.336-1.343 0.555-2.123 0.7-0.322 0.060-0.651 0.106-0.983 0.143-0.21 0.023-0.418 0.114-0.584 0.275-0.397 0.384-0.408 1.017-0.024 1.414 0.067 0.070 0.13 0.143 0.188 0.22 0.34 0.449 0.521 1.015 0.474 1.617 0 0.024-0.001 0.051-0.003 0.078v3.872c0 0.552 0.448 1 1 1s1-0.448 1-1z"></path>
</symbol>
<symbol id="icon-heart" viewBox="0 0 24 24">
<path d="M20.133 5.317c0.88 0.881 1.319 2.031 1.319 3.184s-0.44 2.303-1.319 3.182l-8.133 8.133-8.133-8.133c-0.879-0.879-1.318-2.029-1.318-3.183s0.439-2.304 1.318-3.183 2.029-1.318 3.183-1.318 2.304 0.439 3.183 1.318l1.060 1.060c0.391 0.391 1.024 0.391 1.414 0l1.062-1.062c0.879-0.879 2.029-1.318 3.182-1.317s2.303 0.44 3.182 1.319zM21.547 3.903c-1.269-1.269-2.934-1.904-4.596-1.905s-3.327 0.634-4.597 1.903l-0.354 0.355-0.353-0.353c-1.269-1.269-2.935-1.904-4.597-1.904s-3.328 0.635-4.597 1.904-1.904 2.935-1.904 4.597 0.635 3.328 1.904 4.597l8.84 8.84c0.391 0.391 1.024 0.391 1.414 0l8.84-8.84c1.269-1.269 1.904-2.934 1.905-4.596s-0.634-3.327-1.905-4.598z"></path>
</symbol>
<symbol id="icon-link" viewBox="0 0 24 24">
<path d="M9.199 13.599c0.992 1.327 2.43 2.126 3.948 2.345s3.123-0.142 4.45-1.134c0.239-0.179 0.465-0.375 0.655-0.568l2.995-2.995c1.163-1.204 1.722-2.751 1.696-4.285s-0.639-3.061-1.831-4.211c-1.172-1.132-2.688-1.692-4.199-1.683-1.492 0.008-2.984 0.571-4.137 1.683l-1.731 1.721c-0.392 0.389-0.394 1.023-0.004 1.414s1.023 0.394 1.414 0.004l1.709-1.699c0.77-0.742 1.763-1.117 2.76-1.123 1.009-0.006 2.016 0.367 2.798 1.122 0.795 0.768 1.203 1.783 1.221 2.808s-0.355 2.054-1.11 2.836l-3.005 3.005c-0.114 0.116-0.263 0.247-0.428 0.37-0.885 0.662-1.952 0.902-2.967 0.756s-1.971-0.678-2.632-1.563c-0.331-0.442-0.957-0.533-1.4-0.202s-0.533 0.957-0.202 1.4zM14.801 10.401c-0.992-1.327-2.43-2.126-3.948-2.345s-3.124 0.142-4.451 1.134c-0.239 0.179-0.464 0.375-0.655 0.568l-2.995 2.995c-1.163 1.204-1.722 2.751-1.696 4.285s0.639 3.061 1.831 4.211c1.172 1.132 2.688 1.692 4.199 1.683 1.492-0.008 2.984-0.571 4.137-1.683l1.723-1.723c0.391-0.391 0.391-1.024 0-1.414s-1.024-0.391-1.414 0l-1.696 1.698c-0.77 0.742-1.763 1.117-2.76 1.123-1.009 0.006-2.016-0.367-2.798-1.122-0.795-0.768-1.203-1.783-1.221-2.808s0.355-2.054 1.11-2.836l3.005-3.005c0.114-0.116 0.263-0.247 0.428-0.37 0.885-0.662 1.952-0.902 2.967-0.756s1.971 0.678 2.632 1.563c0.331 0.442 0.957 0.533 1.4 0.202s0.533-0.957 0.202-1.4z"></path>
</symbol>
<symbol id="icon-linkedin" viewBox="0 0 24 24">
<path d="M16 7c-1.933 0-3.684 0.785-4.95 2.050s-2.050 3.017-2.050 4.95v7c0 0.552 0.448 1 1 1h4c0.552 0 1-0.448 1-1v-7c0-0.276 0.111-0.525 0.293-0.707s0.431-0.293 0.707-0.293 0.525 0.111 0.707 0.293 0.293 0.431 0.293 0.707v7c0 0.552 0.448 1 1 1h4c0.552 0 1-0.448 1-1v-7c0-1.933-0.785-3.684-2.050-4.95s-3.017-2.050-4.95-2.050zM16 9c1.381 0 2.63 0.559 3.536 1.464s1.464 2.155 1.464 3.536v6h-2v-6c0-0.828-0.337-1.58-0.879-2.121s-1.293-0.879-2.121-0.879-1.58 0.337-2.121 0.879-0.879 1.293-0.879 2.121v6h-2v-6c0-1.381 0.559-2.63 1.464-3.536s2.155-1.464 3.536-1.464zM2 8c-0.552 0-1 0.448-1 1v12c0 0.552 0.448 1 1 1h4c0.552 0 1-0.448 1-1v-12c0-0.552-0.448-1-1-1zM3 10h2v10h-2zM7 4c0-0.828-0.337-1.58-0.879-2.121s-1.293-0.879-2.121-0.879-1.58 0.337-2.121 0.879-0.879 1.293-0.879 2.121 0.337 1.58 0.879 2.121 1.293 0.879 2.121 0.879 1.58-0.337 2.121-0.879 0.879-1.293 0.879-2.121zM5 4c0 0.276-0.111 0.525-0.293 0.707s-0.431 0.293-0.707 0.293-0.525-0.111-0.707-0.293-0.293-0.431-0.293-0.707 0.111-0.525 0.293-0.707 0.431-0.293 0.707-0.293 0.525 0.111 0.707 0.293 0.293 0.431 0.293 0.707z"></path>
</symbol>
<symbol id="icon-mail" viewBox="0 0 24 24">
<path d="M3 7.921l8.427 5.899c0.34 0.235 0.795 0.246 1.147 0l8.426-5.899v10.079c0 0.272-0.11 0.521-0.295 0.705s-0.433 0.295-0.705 0.295h-16c-0.272 0-0.521-0.11-0.705-0.295s-0.295-0.433-0.295-0.705zM1 5.983c0 0.010 0 0.020 0 0.030v11.987c0 0.828 0.34 1.579 0.88 2.12s1.292 0.88 2.12 0.88h16c0.828 0 1.579-0.34 2.12-0.88s0.88-1.292 0.88-2.12v-11.988c0-0.010 0-0.020 0-0.030-0.005-0.821-0.343-1.565-0.88-2.102-0.541-0.54-1.292-0.88-2.12-0.88h-16c-0.828 0-1.579 0.34-2.12 0.88-0.537 0.537-0.875 1.281-0.88 2.103zM20.894 5.554l-8.894 6.225-8.894-6.225c0.048-0.096 0.112-0.183 0.188-0.259 0.185-0.185 0.434-0.295 0.706-0.295h16c0.272 0 0.521 0.11 0.705 0.295 0.076 0.076 0.14 0.164 0.188 0.259z"></path>
</symbol>
<symbol id="icon-map-pin" viewBox="0 0 24 24">
<path d="M22 10c0-2.761-1.12-5.263-2.929-7.071s-4.31-2.929-7.071-2.929-5.263 1.12-7.071 2.929-2.929 4.31-2.929 7.071c0 0.569 0.053 1.128 0.15 1.676 0.274 1.548 0.899 3.004 1.682 4.32 2.732 4.591 7.613 7.836 7.613 7.836 0.331 0.217 0.765 0.229 1.109 0 0 0 4.882-3.245 7.613-7.836 0.783-1.316 1.408-2.772 1.682-4.32 0.098-0.548 0.151-1.107 0.151-1.676zM20 10c0 0.444-0.041 0.887-0.119 1.328-0.221 1.25-0.737 2.478-1.432 3.646-1.912 3.214-5.036 5.747-6.369 6.74-1.398-0.916-4.588-3.477-6.53-6.74-0.695-1.168-1.211-2.396-1.432-3.646-0.077-0.441-0.118-0.884-0.118-1.328 0-2.209 0.894-4.208 2.343-5.657s3.448-2.343 5.657-2.343 4.208 0.894 5.657 2.343 2.343 3.448 2.343 5.657zM16 10c0-1.104-0.449-2.106-1.172-2.828s-1.724-1.172-2.828-1.172-2.106 0.449-2.828 1.172-1.172 1.724-1.172 2.828 0.449 2.106 1.172 2.828 1.724 1.172 2.828 1.172 2.106-0.449 2.828-1.172 1.172-1.724 1.172-2.828zM14 10c0 0.553-0.223 1.051-0.586 1.414s-0.861 0.586-1.414 0.586-1.051-0.223-1.414-0.586-0.586-0.861-0.586-1.414 0.223-1.051 0.586-1.414 0.861-0.586 1.414-0.586 1.051 0.223 1.414 0.586 0.586 0.861 0.586 1.414z"></path>
</symbol>
<symbol id="icon-moon" viewBox="0 0 24 24">
<path d="M21.996 12.882c0.022-0.233-0.038-0.476-0.188-0.681-0.325-0.446-0.951-0.544-1.397-0.219-0.95 0.693-2.060 1.086-3.188 1.162-1.368 0.092-2.765-0.283-3.95-1.158-1.333-0.985-2.139-2.415-2.367-3.935s0.124-3.124 1.109-4.456c0.142-0.191 0.216-0.435 0.191-0.691-0.053-0.55-0.542-0.952-1.092-0.898-2.258 0.22-4.314 1.18-5.895 2.651-1.736 1.615-2.902 3.847-3.137 6.386-0.254 2.749 0.631 5.343 2.266 7.311s4.022 3.313 6.772 3.567 5.343-0.631 7.311-2.266 3.313-4.022 3.567-6.772zM19.567 14.674c-0.49 1.363-1.335 2.543-2.416 3.441-1.576 1.309-3.648 2.016-5.848 1.813s-4.108-1.278-5.417-2.854-2.016-3.648-1.813-5.848c0.187-2.032 1.117-3.814 2.507-5.106 0.782-0.728 1.71-1.3 2.731-1.672-0.456 1.264-0.577 2.606-0.384 3.899 0.303 2.023 1.38 3.934 3.156 5.247 1.578 1.167 3.448 1.668 5.272 1.545 0.752-0.050 1.496-0.207 2.21-0.465z"></path>
</symbol>
<symbol id="icon-paperclip" viewBox="0 0 24 24">
<path d="M20.733 10.343l-9.19 9.19c-0.977 0.977-2.256 1.465-3.538 1.465s-2.561-0.488-3.538-1.465-1.465-2.256-1.465-3.538 0.488-2.561 1.465-3.538l9.19-9.19c0.586-0.586 1.353-0.879 2.123-0.879s1.536 0.293 2.123 0.879 0.879 1.353 0.879 2.123-0.293 1.536-0.879 2.123l-9.2 9.19c-0.196 0.196-0.451 0.294-0.708 0.294s-0.512-0.098-0.708-0.293-0.293-0.45-0.293-0.708 0.098-0.512 0.293-0.708l8.49-8.48c0.391-0.39 0.391-1.023 0.001-1.414s-1.023-0.391-1.414-0.001l-8.49 8.48c-0.586 0.586-0.879 1.356-0.879 2.122s0.293 1.536 0.879 2.122 1.356 0.879 2.122 0.879 1.536-0.293 2.122-0.879l9.2-9.19c0.977-0.977 1.465-2.258 1.465-3.537s-0.489-2.561-1.465-3.537-2.258-1.465-3.537-1.465-2.561 0.489-3.537 1.465l-9.19 9.19c-1.367 1.367-2.051 3.161-2.051 4.952s0.684 3.585 2.051 4.952 3.161 2.051 4.952 2.051 3.585-0.684 4.952-2.051l9.19-9.19c0.391-0.391 0.391-1.024 0-1.414s-1.024-0.391-1.414 0z"></path>
</symbol>
<symbol id="icon-phone" viewBox="0 0 24 24">
<path d="M23 16.92c0.016-0.714-0.236-1.404-0.673-1.943-0.46-0.566-1.129-0.967-1.925-1.080-0.8-0.098-1.695-0.314-2.586-0.646-0.433-0.159-0.893-0.218-1.344-0.174-0.663 0.064-1.307 0.349-1.819 0.855l-0.72 0.72c-1.77-1.117-3.36-2.667-4.583-4.589l0.726-0.726c0.322-0.33 0.563-0.726 0.707-1.156 0.212-0.632 0.214-1.336-0.039-2.011-0.289-0.753-0.518-1.644-0.644-2.595-0.104-0.714-0.456-1.345-0.963-1.804-0.539-0.486-1.256-0.779-2.027-0.771h-2.996c-0.088 0-0.182 0.004-0.273 0.012-0.824 0.075-1.542 0.478-2.033 1.066s-0.758 1.367-0.683 2.199c0.3 3.076 1.365 6.243 3.216 9.102 1.502 2.413 3.648 4.623 6.298 6.306 2.568 1.697 5.684 2.862 9.086 3.231 0.092 0.009 0.191 0.013 0.288 0.013 0.828-0.003 1.578-0.343 2.118-0.887s0.873-1.297 0.87-2.121zM21 16.92v3c0.001 0.28-0.109 0.53-0.29 0.712s-0.429 0.295-0.706 0.296c-3.149-0.336-5.961-1.391-8.263-2.912-2.428-1.543-4.359-3.537-5.702-5.694-1.697-2.62-2.655-5.481-2.924-8.238-0.024-0.268 0.064-0.526 0.229-0.724s0.403-0.33 0.678-0.355l3.088-0.005c0.271-0.003 0.507 0.094 0.687 0.256 0.17 0.154 0.288 0.366 0.323 0.608 0.142 1.072 0.408 2.117 0.757 3.025 0.081 0.216 0.080 0.447 0.010 0.658-0.049 0.145-0.131 0.281-0.242 0.395l-1.262 1.261c-0.324 0.324-0.379 0.814-0.162 1.201 1.584 2.785 3.839 4.957 6.381 6.378 0.397 0.222 0.882 0.144 1.195-0.166l1.27-1.27c0.166-0.164 0.377-0.257 0.598-0.279 0.152-0.015 0.31 0.005 0.459 0.060 1.022 0.381 2.070 0.636 3.034 0.754 0.241 0.034 0.462 0.166 0.615 0.355 0.147 0.181 0.231 0.412 0.226 0.682z"></path>
</symbol>
<symbol id="icon-play" viewBox="0 0 24 24">
<path d="M5.541 2.159c-0.153-0.1-0.34-0.159-0.541-0.159-0.552 0-1 0.448-1 1v18c-0.001 0.182 0.050 0.372 0.159 0.541 0.299 0.465 0.917 0.599 1.382 0.3l14-9c0.114-0.072 0.219-0.174 0.3-0.3 0.299-0.465 0.164-1.083-0.3-1.382zM6 4.832l11.151 7.168-11.151 7.168z"></path>
</symbol>
<symbol id="icon-send" viewBox="0 0 24 24">
<path d="M22.963 2.269c0.043-0.151 0.050-0.314 0.015-0.476-0.024-0.113-0.068-0.224-0.131-0.325-0.064-0.102-0.145-0.19-0.238-0.262-0.117-0.090-0.249-0.15-0.386-0.181s-0.282-0.034-0.426-0.004c-0.042 0.009-0.085 0.021-0.126 0.035l-0.021 0.007-19.98 6.993c-0.252 0.088-0.467 0.276-0.584 0.538-0.224 0.505 0.003 1.096 0.508 1.32l8.649 3.844 3.844 8.649c0.108 0.243 0.313 0.443 0.583 0.538 0.521 0.182 1.092-0.092 1.274-0.614l6.993-19.979c0.010-0.027 0.019-0.054 0.027-0.082zM10.779 11.807l-6.068-2.696 13.483-4.72zM19.609 5.806l-4.72 13.483-2.696-6.068z"></path>
</symbol>
<symbol id="icon-sun" viewBox="0 0 24 24">
<path d="M18 12c0-1.657-0.673-3.158-1.757-4.243s-2.586-1.757-4.243-1.757-3.158 0.673-4.243 1.757-1.757 2.586-1.757 4.243 0.673 3.158 1.757 4.243 2.586 1.757 4.243 1.757 3.158-0.673 4.243-1.757 1.757-2.586 1.757-4.243zM16 12c0 1.105-0.447 2.103-1.172 2.828s-1.723 1.172-2.828 1.172-2.103-0.447-2.828-1.172-1.172-1.723-1.172-2.828 0.447-2.103 1.172-2.828 1.723-1.172 2.828-1.172 2.103 0.447 2.828 1.172 1.172 1.723 1.172 2.828zM11 1v2c0 0.552 0.448 1 1 1s1-0.448 1-1v-2c0-0.552-0.448-1-1-1s-1 0.448-1 1zM11 21v2c0 0.552 0.448 1 1 1s1-0.448 1-1v-2c0-0.552-0.448-1-1-1s-1 0.448-1 1zM3.513 4.927l1.42 1.42c0.391 0.391 1.024 0.391 1.414 0s0.391-1.024 0-1.414l-1.42-1.42c-0.391-0.391-1.024-0.391-1.414 0s-0.391 1.024 0 1.414zM17.653 19.067l1.42 1.42c0.391 0.391 1.024 0.391 1.414 0s0.391-1.024 0-1.414l-1.42-1.42c-0.391-0.391-1.024-0.391-1.414 0s-0.391 1.024 0 1.414zM1 13h2c0.552 0 1-0.448 1-1s-0.448-1-1-1h-2c-0.552 0-1 0.448-1 1s0.448 1 1 1zM21 13h2c0.552 0 1-0.448 1-1s-0.448-1-1-1h-2c-0.552 0-1 0.448-1 1s0.448 1 1 1zM4.927 20.487l1.42-1.42c0.391-0.391 0.391-1.024 0-1.414s-1.024-0.391-1.414 0l-1.42 1.42c-0.391 0.391-0.391 1.024 0 1.414s1.024 0.391 1.414 0zM19.067 6.347l1.42-1.42c0.391-0.391 0.391-1.024 0-1.414s-1.024-0.391-1.414 0l-1.42 1.42c-0.391 0.391-0.391 1.024 0 1.414s1.024 0.391 1.414 0z"></path>
</symbol>
<symbol id="icon-tag" viewBox="0 0 24 24">
<path d="M21.297 14.117c0.583-0.586 0.874-1.352 0.874-2.115 0.001-0.764-0.29-1.532-0.874-2.12l-8.59-8.59c-0.181-0.18-0.431-0.292-0.707-0.292h-10c-0.552 0-1 0.448-1 1v10c0 0.256 0.098 0.512 0.293 0.708l8.592 8.582c0.586 0.585 1.356 0.878 2.122 0.877s1.536-0.294 2.12-0.879zM19.883 12.703l-7.17 7.17c-0.196 0.196-0.45 0.294-0.707 0.294s-0.512-0.097-0.707-0.292l-8.299-8.29v-8.585h8.586l8.297 8.297c0.192 0.193 0.289 0.447 0.289 0.704s-0.097 0.509-0.289 0.702zM7 8c0.552 0 1-0.448 1-1s-0.448-1-1-1-1 0.448-1 1 0.448 1 1 1z"></path>
</symbol>
<symbol id="icon-twitter" viewBox="0 0 24 24">
<path d="M20.833 5.262c-0.186 0.242-0.391 0.475-0.616 0.696-0.233 0.232-0.347 0.567-0.278 0.908 0.037 0.182 0.060 0.404 0.061 0.634 0 5.256-2.429 8.971-5.81 10.898-2.647 1.509-5.938 1.955-9.222 1.12 1.245-0.361 2.46-0.921 3.593-1.69 0.147-0.099 0.273-0.243 0.352-0.421 0.224-0.505-0.003-1.096-0.508-1.32-2.774-1.233-4.13-2.931-4.769-4.593-0.417-1.084-0.546-2.198-0.52-3.227 0.021-0.811 0.138-1.56 0.278-2.182 0.394 0.343 0.803 0.706 1.235 1.038 2.051 1.577 4.624 2.479 7.395 2.407 0.543-0.015 0.976-0.457 0.976-1v-1.011c-0.002-0.179 0.009-0.357 0.034-0.533 0.113-0.806 0.504-1.569 1.162-2.141 0.725-0.631 1.636-0.908 2.526-0.846s1.753 0.463 2.384 1.188c0.252 0.286 0.649 0.416 1.033 0.304 0.231-0.067 0.463-0.143 0.695-0.228zM22.424 2.183c-0.74 0.522-1.523 0.926-2.287 1.205-0.931-0.836-2.091-1.302-3.276-1.385-1.398-0.097-2.836 0.339-3.977 1.332-1.036 0.901-1.652 2.108-1.83 3.372-0.037 0.265-0.055 0.532-0.054 0.8-1.922-0.142-3.693-0.85-5.15-1.97-0.775-0.596-1.462-1.309-2.034-2.116-0.32-0.45-0.944-0.557-1.394-0.237-0.154 0.109-0.267 0.253-0.335 0.409 0 0-0.132 0.299-0.285 0.76-0.112 0.337-0.241 0.775-0.357 1.29-0.163 0.722-0.302 1.602-0.326 2.571-0.031 1.227 0.12 2.612 0.652 3.996 0.683 1.775 1.966 3.478 4.147 4.823-1.569 0.726-3.245 1.039-4.873 0.967-0.552-0.024-1.019 0.403-1.043 0.955-0.017 0.389 0.19 0.736 0.513 0.918 4.905 2.725 10.426 2.678 14.666 0.261 4.040-2.301 6.819-6.7 6.819-12.634-0.001-0.167-0.008-0.33-0.023-0.489 1.006-1.115 1.676-2.429 1.996-3.781 0.127-0.537-0.206-1.076-0.743-1.203-0.29-0.069-0.58-0.003-0.807 0.156z"></path>
</symbol>
<symbol id="icon-youtube" viewBox="0 0 24 24">
<path d="M21.563 6.637c0.287 1.529 0.448 3.295 0.437 5.125 0.019 1.528-0.123 3.267-0.437 5.021-0.057 0.208-0.15 0.403-0.272 0.575-0.227 0.321-0.558 0.565-0.949 0.675-0.604 0.161-2.156 0.275-3.877 0.341-2.23 0.086-4.465 0.086-4.465 0.086s-2.235 0-4.465-0.085c-1.721-0.066-3.273-0.179-3.866-0.338-0.205-0.057-0.396-0.149-0.566-0.268-0.311-0.22-0.55-0.536-0.67-0.923-0.285-1.526-0.444-3.286-0.433-5.11-0.021-1.54 0.121-3.292 0.437-5.060 0.057-0.208 0.15-0.403 0.272-0.575 0.227-0.321 0.558-0.565 0.949-0.675 0.604-0.161 2.156-0.275 3.877-0.341 2.23-0.085 4.465-0.085 4.465-0.085s2.235 0 4.466 0.078c1.719 0.060 3.282 0.163 3.856 0.303 0.219 0.063 0.421 0.165 0.598 0.299 0.307 0.232 0.538 0.561 0.643 0.958zM23.51 6.177c-0.217-0.866-0.718-1.59-1.383-2.093-0.373-0.282-0.796-0.494-1.249-0.625-0.898-0.22-2.696-0.323-4.342-0.38-2.267-0.079-4.536-0.079-4.536-0.079s-2.272 0-4.541 0.087c-1.642 0.063-3.45 0.175-4.317 0.407-0.874 0.247-1.581 0.77-2.064 1.45-0.27 0.381-0.469 0.811-0.587 1.268-0.006 0.024-0.011 0.049-0.015 0.071-0.343 1.898-0.499 3.793-0.476 5.481-0.012 1.924 0.161 3.831 0.477 5.502 0.006 0.031 0.013 0.062 0.021 0.088 0.245 0.86 0.77 1.567 1.451 2.048 0.357 0.252 0.757 0.443 1.182 0.561 0.879 0.235 2.686 0.347 4.328 0.41 2.269 0.087 4.541 0.087 4.541 0.087s2.272 0 4.541-0.087c1.642-0.063 3.449-0.175 4.317-0.407 0.873-0.247 1.581-0.77 2.063-1.45 0.27-0.381 0.47-0.811 0.587-1.267 0.006-0.025 0.012-0.050 0.015-0.071 0.34-1.884 0.496-3.765 0.476-5.44 0.012-1.925-0.161-3.833-0.477-5.504-0.004-0.020-0.008-0.040-0.012-0.057zM10.75 13.301v-3.102l2.727 1.551zM10.244 15.889l5.75-3.27c0.48-0.273 0.648-0.884 0.375-1.364-0.093-0.164-0.226-0.292-0.375-0.375l-5.75-3.27c-0.48-0.273-1.091-0.105-1.364 0.375-0.090 0.158-0.132 0.33-0.131 0.494v6.54c0 0.552 0.448 1 1 1 0.182 0 0.352-0.049 0.494-0.131z"></path>
</symbol>
<symbol id="icon-heart1" viewBox="0 0 32 32">
<path d="M29.193 5.265c-3.629-3.596-9.432-3.671-13.191-0.288-3.76-3.383-9.561-3.308-13.192 0.288-3.741 3.704-3.741 9.709 0 13.415 1.069 1.059 11.053 10.941 11.053 10.941 1.183 1.172 3.096 1.172 4.278 0 0 0 10.932-10.822 11.053-10.941 3.742-3.706 3.742-9.711-0.001-13.415zM27.768 17.268l-11.053 10.941c-0.393 0.391-1.034 0.391-1.425 0l-11.053-10.941c-2.95-2.92-2.95-7.671 0-10.591 2.844-2.815 7.416-2.914 10.409-0.222l1.356 1.22 1.355-1.22c2.994-2.692 7.566-2.594 10.41 0.222 2.95 2.919 2.95 7.67 0.001 10.591zM9.253 7.501c0.277 0 0.5 0.224 0.5 0.5s-0.224 0.5-0.5 0.5h-0.001c-1.794 0-3.249 1.455-3.249 3.249v0.001c0 0.276-0.224 0.5-0.5 0.5s-0.5-0.224-0.5-0.5v0c0-2.346 1.901-4.247 4.246-4.249 0.002 0 0.002-0.001 0.004-0.001z"></path>
</symbol>
</defs>
</svg>
